<?xml version="1.0" encoding="UTF-8" standalone="no"?>
<svg
   width="1200"
   height="700"
   viewBox="0 0 1000 583.33333"
   version="1.1"
   id="svg6"
   sodipodi:docname="aware-logo-rounded.svg"
   inkscape:version="1.3.2 (091e20e, 2023-11-25, custom)"
   xmlns:inkscape="http://www.inkscape.org/namespaces/inkscape"
   xmlns:sodipodi="http://sodipodi.sourceforge.net/DTD/sodipodi-0.dtd"
   xmlns="http://www.w3.org/2000/svg"
   xmlns:svg="http://www.w3.org/2000/svg">
  <defs
     id="defs6" />
  <sodipodi:namedview
     id="namedview6"
     pagecolor="#ffffff"
     bordercolor="#000000"
     borderopacity="0.25"
     inkscape:showpageshadow="2"
     inkscape:pageopacity="0.0"
     inkscape:pagecheckerboard="0"
     inkscape:deskcolor="#d1d1d1"
     inkscape:zoom="0.82554717"
     inkscape:cx="487.55542"
     inkscape:cy="538.43077"
     inkscape:window-width="2315"
     inkscape:window-height="1503"
     inkscape:window-x="480"
     inkscape:window-y="2640"
     inkscape:window-maximized="0"
     inkscape:current-layer="svg6" />
  <rect
     width="1000"
     height="583.33331"
     fill="#ffffff"
     id="rect1"
     x="0"
     y="0"
     style="fill:#ffffff;fill-opacity:1;stroke-width:0.66666666;stroke:none;stroke-opacity:1;stroke-dasharray:none"
     ry="161.50905" />
  <g
     transform="translate(140,56.65937)"
     id="g3">
    <path
       d="M 40,360 110,80 180,360"
       stroke="#2c4368"
       stroke-width="8"
       fill="none"
       stroke-linecap="round"
       stroke-linejoin="round"
       id="path1" />
    <circle
       cx="110"
       cy="65"
       r="12"
       fill="#2c4368"
       id="circle1" />
    <path
       d="m 75,60 a 40,40 0 0 1 70,0"
       stroke="#2c4368"
       stroke-width="6"
       fill="none"
       stroke-linecap="round"
       id="path2" />
    <path
       d="m 60,35 a 65,65 0 0 1 100,0"
       stroke="#2c4368"
       stroke-width="6"
       fill="none"
       stroke-linecap="round"
       id="path3" />
  </g>
  <path
     d="m 180,291.65937 c 36.67,-12 73.33,-12 110,0 36.67,12 73.33,12 110,0 36.67,-12 73.33,-12 110,0 36.67,12 73.33,12 110,0 36.67,-12 73.33,-12 110,0 36.67,12 73.33,12 90,0"
     stroke="#2c4368"
     stroke-width="8"
     fill="none"
     stroke-linecap="round"
     id="path4" />
  <text
     x="820"
     y="261.65936"
     text-anchor="end"
     fill="#2c4368"
     font-size="170px"
     font-weight="700"
     font-family="Helvetica, Arial, sans-serif"
     id="text4">WARE</text>
  <text
     x="820"
     y="366.65936"
     text-anchor="end"
     fill="#2c4368"
     font-size="62px"
     font-weight="600"
     font-family="Helvetica, Arial, sans-serif"
     letter-spacing="1.5"
     id="text5">LAB</text>
  <text
     x="510.3905"
     y="488.30099"
     text-anchor="middle"
     fill="#444444"
     font-size="44px"
     font-family="Helvetica, Arial, sans-serif"
     id="text6"><tspan
       x="510.3905"
       dy="0"
       id="tspan5">Advanced Wireless &amp; Electromagnetic</tspan><tspan
       x="510.3905"
       dy="54"
       id="tspan6">Systems Laboratory</tspan></text>
</svg>
