<?xml version="1.0" encoding="UTF-8" standalone="no"?>
<!-- Created with Inkscape (http://www.inkscape.org/) -->

<svg
   width="104.369mm"
   height="46.394001mm"
   viewBox="0 0 130.46125 57.992502"
   version="1.1"
   id="svg1"
   inkscape:version="1.3.2 (091e20e, 2023-11-25, custom)"
   sodipodi:docname="UNK Logo rounded.svg"
   inkscape:export-filename="UNK Logo rounded.png"
   inkscape:export-xdpi="96"
   inkscape:export-ydpi="96"
   xmlns:inkscape="http://www.inkscape.org/namespaces/inkscape"
   xmlns:sodipodi="http://sodipodi.sourceforge.net/DTD/sodipodi-0.dtd"
   xmlns="http://www.w3.org/2000/svg"
   xmlns:svg="http://www.w3.org/2000/svg">
  <sodipodi:namedview
     id="namedview1"
     pagecolor="#ffffff"
     bordercolor="#000000"
     borderopacity="0.25"
     inkscape:showpageshadow="2"
     inkscape:pageopacity="0.0"
     inkscape:pagecheckerboard="0"
     inkscape:deskcolor="#d1d1d1"
     inkscape:document-units="mm"
     inkscape:zoom="2.05"
     inkscape:cx="183.90244"
     inkscape:cy="118.78049"
     inkscape:window-width="3840"
     inkscape:window-height="2071"
     inkscape:window-x="-9"
     inkscape:window-y="2151"
     inkscape:window-maximized="1"
     inkscape:current-layer="layer1" />
  <defs
     id="defs1">
    <pattern
       id="EMFhbasepattern"
       patternUnits="userSpaceOnUse"
       width="6"
       height="6"
       x="0"
       y="0" />
  </defs>
  <g
     inkscape:label="Layer 1"
     inkscape:groupmode="layer"
     id="layer1"
     transform="translate(-33.7661,-20.520479)">
    <rect
       style="fill:#ffffff;fill-opacity:1;fill-rule:evenodd;stroke-width:0.278072;stroke-miterlimit:2.5"
       id="rect1"
       width="130.46124"
       height="57.992496"
       x="33.766102"
       y="20.520479"
       ry="14.170953" />
    <path
       style="fill:#e03a3e;fill-opacity:1;fill-rule:nonzero;stroke:none;stroke-width:0.264583"
       d="m 113.16386,62.432859 c -1.05834,0.0882 -1.05834,0.0882 -1.05834,0.0882 0,11.64167 0,11.64167 0,11.64167 0.44097,0 0.70556,0.0882 1.32292,0.0882 2.20486,0 2.99861,-1.23472 3.88055,-3.43959 0.52917,0.17639 0.52917,0.17639 0.52917,0.17639 -0.88194,4.14514 -0.88194,4.14514 -0.88194,4.14514 -0.88195,-0.26458 -0.97014,-0.26458 -1.94028,-0.26458 -5.46806,0 -5.46806,0 -5.46806,0 0,-0.61736 0,-0.61736 0,-0.61736 0.97014,-0.17639 0.97014,-0.17639 0.97014,-0.17639 0,-11.55347 0,-11.55347 0,-11.55347 -0.97014,-0.0882 -0.97014,-0.0882 -0.97014,-0.0882 0,-0.61737 0,-0.61737 0,-0.61737 3.61598,0 3.61598,0 3.61598,0 z"
       id="path1" />
    <path
       style="fill:#e03a3e;fill-opacity:1;fill-rule:nonzero;stroke:none;stroke-width:0.264583"
       d="m 120.04302,74.074529 c 0.79375,0.17638 0.79375,0.17638 0.79375,0.17638 0,0.61737 0,0.61737 0,0.61737 -2.91041,0 -2.91041,0 -2.91041,0 0,-0.61737 0,-0.61737 0,-0.61737 0.88194,-0.17638 0.88194,-0.17638 0.88194,-0.17638 0,-5.99723 0,-5.99723 0,-5.99723 0,-0.44097 0,-0.44097 0,-0.44097 0,-0.44097 -0.17639,-0.70555 -0.44097,-0.70555 -0.17639,0 -0.26459,0.0882 -0.44097,0.0882 0,-0.61736 0,-0.61736 0,-0.61736 2.11666,-0.79375 2.11666,-0.79375 2.11666,-0.79375 z m -0.61736,-10.40695 c -0.52917,0 -0.88194,-0.44097 -0.88194,-1.05833 0,-0.52917 0.35277,-0.97014 0.88194,-0.97014 0.52917,0 0.88195,0.44097 0.88195,1.05833 0,0.52917 -0.44098,0.97014 -0.88195,0.97014 z"
       id="path2" />
    <path
       style="fill:#e03a3e;fill-opacity:1;fill-rule:nonzero;stroke:none;stroke-width:0.264583"
       d="m 123.48261,67.107159 c 0.52916,-0.88194 1.41111,-1.41111 2.20486,-1.41111 1.85208,0 2.38125,1.5875 2.38125,3.43959 0,4.93889 0,4.93889 0,4.93889 0.79375,0.17638 0.79375,0.17638 0.79375,0.17638 0,0.61737 0,0.61737 0,0.61737 -2.82223,0 -2.82223,0 -2.82223,0 0,-0.61737 0,-0.61737 0,-0.61737 0.79375,-0.17638 0.79375,-0.17638 0.79375,-0.17638 0,-4.8507 0,-4.8507 0,-4.8507 0,-1.76389 -0.52916,-2.64583 -1.4993,-2.64583 -0.70556,0 -1.41111,0.52916 -1.85208,1.32291 0,6.17362 0,6.17362 0,6.17362 0.88194,0.17638 0.88194,0.17638 0.88194,0.17638 0,0.61737 0,0.61737 0,0.61737 -2.99861,0 -2.99861,0 -2.99861,0 0,-0.61737 0,-0.61737 0,-0.61737 0.88194,-0.17638 0.88194,-0.17638 0.88194,-0.17638 0,-5.55625 0,-5.55625 0,-5.55625 0,-1.23473 -0.17639,-1.5875 -0.61736,-1.5875 0,0 -0.0882,0 -0.26458,0.0882 0,-0.70556 0,-0.70556 0,-0.70556 1.5875,-0.79375 1.5875,-0.79375 1.5875,-0.79375 0.35278,0.52917 0.52917,0.97014 0.52917,1.5875 z"
       id="path3" />
    <path
       style="fill:#e03a3e;fill-opacity:1;fill-rule:nonzero;stroke:none;stroke-width:0.264583"
       d="m 132.47844,75.221049 c -1.94028,0 -3.35139,-1.76389 -3.35139,-4.40972 0,-2.82222 1.67569,-5.11528 3.70417,-5.11528 1.14652,0 2.11666,0.70556 2.11666,1.5875 0,0.52917 -0.35277,0.97014 -0.79375,0.97014 -0.44097,0 -0.88194,-0.44097 -0.97014,-0.97014 -0.0882,-0.79375 -0.17638,-0.79375 -0.70555,-0.79375 -1.14653,0 -2.02847,1.49931 -2.02847,3.52778 0,2.29306 1.14652,3.96875 2.64583,3.96875 0.70556,0 1.14653,-0.35278 1.85208,-1.41111 0.35278,0.35278 0.35278,0.35278 0.35278,0.35278 -0.70555,1.4993 -1.67569,2.29305 -2.82222,2.29305 z"
       id="path4" />
    <path
       style="fill:#e03a3e;fill-opacity:1;fill-rule:nonzero;stroke:none;stroke-width:0.264583"
       d="m 140.85691,70.370359 c 0,2.64583 -0.70555,4.05694 -1.94028,4.05694 -1.32291,0 -1.94027,-1.23472 -1.94027,-4.14514 0,-2.46944 0.79375,-3.88055 2.02847,-3.88055 1.14653,0 1.85208,1.4993 1.85208,3.96875 z m 1.4993,0.17639 c 0,-2.73403 -1.4111,-4.8507 -3.35138,-4.8507 -1.94028,0 -3.52778,2.11667 -3.52778,4.67431 0,2.73403 1.49931,4.85069 3.43958,4.85069 1.85209,0 3.43958,-2.20486 3.43958,-4.6743 z"
       id="path5" />
    <path
       style="fill:#e03a3e;fill-opacity:1;fill-rule:nonzero;stroke:none;stroke-width:0.264583"
       d="m 144.56107,74.074529 c 0.88195,0.17638 0.88195,0.17638 0.88195,0.17638 0,0.61737 0,0.61737 0,0.61737 -2.99861,0 -2.99861,0 -2.99861,0 0,-0.61737 0,-0.61737 0,-0.61737 0.88194,-0.17638 0.88194,-0.17638 0.88194,-0.17638 0,-10.49514 0,-10.49514 0,-10.49514 0,-0.88195 -0.17639,-1.23473 -0.52916,-1.23473 -0.0882,0 -0.0882,0.0882 -0.35278,0.0882 0,-0.70555 0,-0.70555 0,-0.70555 2.11666,-0.97014 2.11666,-0.97014 2.11666,-0.97014 z"
       id="path6" />
    <path
       style="fill:#e03a3e;fill-opacity:1;fill-rule:nonzero;stroke:none;stroke-width:0.264583"
       d="m 148.08885,67.107159 c 0.44097,-0.88194 1.41111,-1.41111 2.20486,-1.41111 1.85209,0 2.38125,1.5875 2.38125,3.43959 0,4.93889 0,4.93889 0,4.93889 0.79375,0.17638 0.79375,0.17638 0.79375,0.17638 0,0.61737 0,0.61737 0,0.61737 -2.91041,0 -2.91041,0 -2.91041,0 0,-0.61737 0,-0.61737 0,-0.61737 0.88194,-0.17638 0.88194,-0.17638 0.88194,-0.17638 0,-4.8507 0,-4.8507 0,-4.8507 0,-1.76389 -0.52917,-2.64583 -1.4993,-2.64583 -0.70556,0 -1.41112,0.52916 -1.85209,1.32291 0,6.17362 0,6.17362 0,6.17362 0.79375,0.17638 0.79375,0.17638 0.79375,0.17638 0,0.61737 0,0.61737 0,0.61737 -2.91041,0 -2.91041,0 -2.91041,0 0,-0.61737 0,-0.61737 0,-0.61737 0.79375,-0.17638 0.79375,-0.17638 0.79375,-0.17638 0,-5.55625 0,-5.55625 0,-5.55625 0,-1.23473 -0.0882,-1.5875 -0.52917,-1.5875 -0.0882,0 -0.17639,0 -0.26458,0.0882 0,-0.70556 0,-0.70556 0,-0.70556 1.5875,-0.79375 1.5875,-0.79375 1.5875,-0.79375 0.26458,0.52917 0.44097,0.97014 0.52916,1.5875 z"
       id="path7" />
    <path
       style="fill:#000000;fill-opacity:1;fill-rule:nonzero;stroke:none;stroke-width:0.264583"
       d="m 83.971498,30.947439 c 0,3.61597 0,3.61597 0,3.61597 0,0.88195 0,1.14653 0.17639,1.49931 0.26459,0.35278 0.61736,0.52917 1.05834,0.52917 0.52916,0 0.97014,-0.26459 1.14652,-0.70556 0.0882,-0.26458 0.17639,-0.52917 0.17639,-1.32292 0,-3.61597 0,-3.61597 0,-3.61597 0.61736,0 0.61736,0 0.61736,0 0,3.61597 0,3.61597 0,3.61597 0,0.97014 0,1.32292 -0.26458,1.76389 -0.26458,0.61736 -0.88194,0.88195 -1.67569,0.88195 -0.88195,0 -1.49931,-0.35278 -1.76389,-1.14653 -0.17639,-0.35278 -0.17639,-0.61736 -0.17639,-1.49931 0,-3.61597 0,-3.61597 0,-3.61597 z"
       id="path8" />
    <path
       style="fill:#000000;fill-opacity:1;fill-rule:nonzero;stroke:none;stroke-width:0.264583"
       d="m 92.438172,37.121049 h -0.70555 l -2.82223,-5.02708 v 5.02708 h -0.70555 v -6.17361 h 0.70555 l 2.82223,4.93889 v -4.93889 h 0.70555 z"
       id="path9" />
    <path
       style="fill:#000000;fill-opacity:1;fill-rule:nonzero;stroke:none;stroke-width:0.264583"
       d="m 94.378452,37.121049 h -0.70556 v -6.17361 h 0.70556 z"
       id="path10" />
    <path
       style="fill:#000000;fill-opacity:1;fill-rule:nonzero;stroke:none;stroke-width:0.264583"
       d="m 97.465252,35.886329 1.76389,-4.93889 h 0.61736 l -2.20486,6.17361 h -0.44097 l -1.94028,-6.17361 h 0.61736 z"
       id="path11" />
    <path
       style="fill:#000000;fill-opacity:1;fill-rule:nonzero;stroke:none;stroke-width:0.264583"
       d="m 103.28609,33.681469 v 0.52917 H 101.434 v 2.29305 h 2.11667 v 0.61736 h -2.82222 v -6.17361 h 2.55764 v 0.52917 H 101.434 v 2.20486 z"
       id="path12" />
    <path
       style="fill:#000000;fill-opacity:1;fill-rule:nonzero;stroke:none;stroke-width:0.264583"
       d="m 105.22637,33.681469 c 0,-2.20486 0,-2.20486 0,-2.20486 0.44097,0 0.44097,0 0.44097,0 0.26458,0 0.26458,0 0.26458,0 0.52917,0 0.70556,0.26458 0.70556,0.97014 0,0.44097 -0.0882,0.79375 -0.35278,1.05833 -0.0882,0.0882 -0.26458,0.17639 -0.61736,0.17639 z m -0.70556,3.43958 c 0.70556,0 0.70556,0 0.70556,0 0,-2.82222 0,-2.82222 0,-2.82222 0.52916,0 0.52916,0 0.52916,0 1.49931,2.82222 1.49931,2.82222 1.49931,2.82222 0.70554,0 0.70554,0 0.70554,0 -1.58749,-2.91041 -1.58749,-2.91041 -1.58749,-2.91041 0.35278,-0.17639 0.44098,-0.26459 0.61736,-0.44098 0.26459,-0.35277 0.44098,-0.79375 0.44098,-1.32291 0,-0.61736 -0.26459,-1.14653 -0.61736,-1.32292 -0.26459,-0.17639 -0.52917,-0.17639 -1.05834,-0.17639 -1.23472,0 -1.23472,0 -1.23472,0 z"
       id="path13" />
    <path
       style="fill:#000000;fill-opacity:1;fill-rule:nonzero;stroke:none;stroke-width:0.264583"
       d="m 110.78261,32.093969 c -0.17639,-0.52917 -0.44098,-0.70556 -0.79375,-0.70556 -0.44098,0 -0.70556,0.35278 -0.70556,0.97014 0,0.44098 0.17639,0.70556 0.79375,1.23473 0.52917,0.35277 0.70556,0.52916 0.88194,0.70555 0.26459,0.26458 0.35278,0.70556 0.35278,1.05833 0,1.14653 -0.61736,1.85209 -1.5875,1.85209 -0.61736,0 -1.05833,-0.26459 -1.41111,-0.88195 0.44097,-0.61736 0.44097,-0.61736 0.44097,-0.61736 0.17639,0.52917 0.52917,0.88195 0.97014,0.88195 0.52917,0 0.88195,-0.44098 0.88195,-1.05834 0,-0.35277 -0.0882,-0.61736 -0.26459,-0.79375 -0.17639,-0.17639 -0.17639,-0.17639 -0.61736,-0.52916 -0.88194,-0.61736 -1.14653,-1.05834 -1.14653,-1.76389 0,-0.97014 0.61737,-1.6757 1.41112,-1.6757 0.52916,0 0.97013,0.26459 1.23472,0.79375 z"
       id="path14" />
    <path
       style="fill:#000000;fill-opacity:1;fill-rule:nonzero;stroke:none;stroke-width:0.264583"
       d="m 113.07566,37.121049 h -0.61736 v -6.17361 h 0.61736 z"
       id="path15" />
    <path
       style="fill:#000000;fill-opacity:1;fill-rule:nonzero;stroke:none;stroke-width:0.264583"
       d="m 116.42705,37.121049 h -0.70556 v -5.64444 h -1.4993 v -0.52917 h 3.61597 v 0.52917 h -1.41111 z"
       id="path16" />
    <path
       style="fill:#000000;fill-opacity:1;fill-rule:nonzero;stroke:none;stroke-width:0.264583"
       d="m 122.68886,30.947439 -1.6757,3.43959 v 2.73402 h -0.70555 v -2.73402 l -1.6757,-3.43959 h 0.70556 l 1.32291,2.64584 1.41111,-2.64584 z"
       id="path17" />
    <path
       style="fill:#000000;fill-opacity:1;fill-rule:nonzero;stroke:none;stroke-width:0.264583"
       d="m 134.41872,31.388409 c 1.05833,0 1.67569,0.97014 1.67569,2.64584 0,1.5875 -0.61736,2.55764 -1.67569,2.55764 -1.05834,0 -1.6757,-0.97014 -1.6757,-2.64584 0,-1.5875 0.61736,-2.55764 1.6757,-2.55764 z m 0,-0.61736 c -1.49931,0 -2.38125,1.23473 -2.38125,3.175 0,1.14653 0.17639,1.94028 0.70555,2.55764 0.44097,0.44097 0.97014,0.70556 1.6757,0.70556 0.70555,0 1.32291,-0.26459 1.76389,-0.70556 0.44097,-0.61736 0.70555,-1.41111 0.70555,-2.46944 0,-2.02847 -0.88194,-3.2632 -2.46944,-3.2632 z"
       id="path18" />
    <path
       style="fill:#000000;fill-opacity:1;fill-rule:nonzero;stroke:none;stroke-width:0.264583"
       d="m 140.41594,33.681469 v 0.61736 h -1.5875 v 2.82222 h -0.70556 v -6.17361 h 2.46945 v 0.52917 h -1.76389 v 2.20486 z"
       id="path19" />
    <path
       style="fill:#000000;fill-opacity:1;fill-rule:nonzero;stroke:none;stroke-width:0.264583"
       d="m 63.422198,30.418279 c -7.23195,0 -7.23195,0 -7.23195,0 0,0.79375 0,0.79375 0,0.79375 0.44098,0.0882 0.44098,0.0882 0.44098,0.0882 2.20486,0.44097 2.55764,0.44097 2.55764,3.08681 0,0 0,14.64027 0,15.875 -0.61737,-1.05834 -11.90625,-19.84375 -11.90625,-19.84375 -5.99723,0 -5.99723,0 -5.99723,0 0,0.79375 0,0.79375 0,0.79375 0.61736,0.0882 0.61736,0.0882 0.61736,0.0882 2.29306,0.17639 2.55764,0.17639 2.55764,2.82222 0,19.75556 0,19.75556 0,19.75556 0,2.38125 -0.35277,2.46944 -2.29305,2.73403 -0.88195,0.0882 -0.88195,0.0882 -0.88195,0.0882 0,0.17639 0,0.17639 0,0.17639 0,0.79375 0,0.79375 0,0.79375 8.37848,0 8.37848,0 8.37848,0 0,-0.97014 0,-0.97014 0,-0.97014 -0.97014,-0.0882 -0.97014,-0.0882 -0.97014,-0.0882 -2.02848,-0.26458 -2.38125,-0.35278 -2.38125,-2.73403 0,0 0,-15.52222 0,-16.66875 0.61736,0.97014 12.96458,20.46111 12.96458,20.46111 1.85208,0 1.85208,0 1.85208,0 0,-23.37152 0,-23.37152 0,-23.37152 0,-2.38125 0.26459,-2.46945 2.11667,-2.99862 0.35278,-0.0882 0.35278,-0.0882 0.35278,-0.0882 0,-0.79375 0,-0.79375 0,-0.79375 z"
       id="path20" />
    <path
       style="fill:#000000;fill-opacity:1;fill-rule:nonzero;stroke:none;stroke-width:0.264583"
       d="m 84.853448,39.325909 c -1.85208,0 -3.2632,0.70556 -4.49792,2.29306 0,-0.97014 0,-13.14097 0,-13.14097 -0.26458,0.0882 -0.26458,0.0882 -0.26458,0.0882 -4.93889,1.85209 -4.93889,1.85209 -4.93889,1.85209 0,0.88194 0,0.88194 0,0.88194 0.17639,-0.0882 0.17639,-0.0882 0.17639,-0.0882 0.44097,-0.0882 0.52917,-0.0882 0.70555,-0.0882 0.79375,0 1.05834,0.35278 1.05834,2.20486 0,17.10972 0,17.10972 0,17.10972 0,3.61598 -0.17639,4.93889 -0.97014,7.14375 -0.0882,0.17639 -0.0882,0.17639 -0.0882,0.17639 0.97014,0.52917 0.97014,0.52917 0.97014,0.52917 0,0 1.94028,-2.38125 2.29306,-2.73403 1.05833,1.85209 2.64583,2.73403 4.7625,2.73403 4.145134,0 7.408334,-4.32153 7.408334,-9.87778 0,-5.46805 -2.64583,-9.08403 -6.614584,-9.08403 z m -1.14653,17.02153 c -2.55764,0 -3.35139,-1.41111 -3.35139,-6.2618 0,0 0,-6.17361 0,-6.26181 1.14653,-1.23472 2.02847,-1.76389 3.08681,-1.76389 2.73403,0 4.850694,3.2632 4.850694,7.67292 0,4.05694 -1.852084,6.61458 -4.586114,6.61458 z"
       id="path21" />
    <path
       style="fill:#000000;fill-opacity:1;fill-rule:nonzero;stroke:none;stroke-width:0.264583"
       d="m 154.35066,54.671749 c -0.0882,0.0882 -0.0882,0.0882 -0.0882,0.0882 -0.52916,0.70555 -0.70555,0.79375 -1.05833,0.79375 -0.35278,0 -0.61736,-0.70556 -0.61736,-1.6757 0,-8.29027 0,-8.29027 0,-8.29027 0,-2.29306 -0.44097,-3.2632 -1.5875,-4.23334 -3.175,-2.55764 -6.52639,-2.55764 -7.58472,-2.55764 -3.26319,-0.0882 -11.28889,4.40973 -13.31736,9.78959 0,-2.11667 0,-20.10834 0,-20.10834 -0.26458,0.0882 -0.26458,0.0882 -0.26458,0.0882 -4.8507,1.85208 -4.8507,1.85208 -4.8507,1.85208 0,0.97014 0,0.97014 0,0.97014 0.26458,-0.0882 0.26458,-0.0882 0.26458,-0.0882 0.26459,-0.0882 0.44098,-0.0882 0.70556,-0.0882 0.61736,0 0.88194,0.26458 0.88194,1.85208 0,0 0,23.19514 0,23.45973 -0.26458,0.0882 -1.85208,0.26458 -1.85208,0.26458 0,1.05833 0,1.05833 0,1.05833 6.96736,0 6.96736,0 6.96736,0 0,-1.05833 0,-1.05833 0,-1.05833 0,0 -1.5875,-0.17639 -1.85208,-0.26458 0,-3.96875 0.17639,-5.02709 2.38125,-8.20209 0.26458,0.52917 4.14514,7.76112 4.40972,8.20209 -0.44097,0.0882 -1.76389,0.26458 -1.76389,0.26458 0,1.05833 0,1.05833 0,1.05833 7.58472,0 7.58472,0 7.58472,0 0,0 0,0 0,0 0.61736,0.26459 1.32292,0.44098 2.02847,0.44098 2.02848,0 3.88056,-1.14653 4.93889,-2.99861 0.17639,1.85208 1.05834,2.99861 2.55764,2.99861 0.88195,0 2.02847,-0.88195 3.175,-2.46945 0.0882,-0.17639 0.0882,-0.17639 0.0882,-0.17639 z m -14.55208,-1.23472 c 0,1.14652 0.35278,2.20486 1.05833,3.0868 -0.26458,0 -0.35278,0 -0.44097,-0.0882 -0.0882,-0.0882 -5.82083,-10.58333 -5.99722,-10.75972 1.05833,-1.41111 3.88055,-3.70417 5.90902,-3.96875 0.61737,0 1.05833,-0.0882 1.14653,0.0882 0.35278,0.61736 1.32292,0.52916 1.32292,0.52916 0.17638,0 1.32291,0.0882 2.29305,-1.4993 0,0 0.0882,-0.17639 0.61736,-0.17639 2.55764,0 3.52778,2.91042 3.52778,4.7625 -3.61597,1.14653 -9.4368,3.08681 -9.4368,8.02569 z m 9.4368,0.0882 c -1.05833,1.32291 -2.20486,2.02847 -3.26319,2.02847 -1.5875,0 -2.73403,-1.32292 -2.73403,-3.08681 0,-3.35139 3.26319,-4.49791 5.99722,-5.37986 0,0 0,0 0,-0.0882 0,0.52917 0,6.43819 0,6.52639 z"
       id="path22" />
    <path
       style="fill:#000000;fill-opacity:1;fill-rule:nonzero;stroke:none;stroke-width:0.264583"
       d="m 75.152058,52.555079 c -0.17639,0.17639 -0.17639,0.17639 -0.17639,0.17639 -1.41111,2.02847 -2.55764,2.91042 -4.23333,2.91042 -2.73403,0 -4.8507,-2.38125 -5.46806,-5.99723 0.35278,-0.0882 10.93611,-2.91041 10.93611,-2.91041 -0.0882,-0.17639 -0.0882,-0.17639 -0.0882,-0.17639 -0.52916,-4.49792 -2.99861,-7.23195 -6.70278,-7.23195 -4.14513,0 -7.49652,4.58612 -7.49652,10.14237 0,5.11527 3.175,8.81944 7.67291,8.81944 2.91042,0 5.02709,-1.49931 6.52639,-4.67431 0.0882,-0.17638 0.0882,-0.17638 0.0882,-0.17638 z m -5.73264,-11.55347 c 1.6757,0 2.82222,1.32292 2.82222,3.35139 0,0.97014 -0.35277,1.5875 -2.20486,2.02847 0,0 -3.96875,0.97014 -4.93889,1.23472 0.0882,-4.05694 1.6757,-6.61458 4.32153,-6.61458 z"
       id="path23" />
    <path
       style="fill:#000000;fill-opacity:1;fill-rule:nonzero;stroke:none;stroke-width:0.264583"
       d="m 121.54233,46.910639 c -3.96875,-1.76389 -4.32153,-2.02848 -4.32153,-3.52778 0,-1.23472 1.14653,-2.29306 2.55764,-2.29306 0,0 1.14653,-0.0882 1.32292,0.44098 0,0.26458 0.52916,1.76388 2.38125,1.41111 0.88194,-0.17639 1.14652,-0.88195 1.14652,-1.49931 0.0882,-1.05833 -1.23472,-2.20486 -3.26319,-2.20486 -3.96875,0 -6.96736,2.38125 -6.96736,5.46806 0,2.91041 2.38125,4.05694 4.6743,5.11527 2.02848,0.88195 3.96875,1.76389 3.96875,3.79236 0,1.5875 -1.41111,2.91042 -3.175,2.91042 -1.76389,0 -2.29305,-0.88194 -2.46944,-2.11667 -0.0882,-1.32291 -1.23472,-1.67569 -2.02847,-1.67569 -0.97014,0 -1.76389,0.70556 -1.85209,1.85208 0,0.26459 0,0.26459 0.0882,0.52917 -0.44097,0.44097 -0.61736,0.52917 -0.79375,0.52917 -0.44097,0 -0.70555,-0.70556 -0.70555,-1.6757 0,-7.76111 0,-7.76111 0,-7.76111 0,0 0,0 0,0 0,-0.52917 0,-0.52917 0,-0.52917 0,-2.29305 -0.35278,-3.35138 -1.5875,-4.23333 -1.85208,-1.76389 -5.73263,-3.175 -8.90763,-2.46944 -1.852078,0.35277 -4.674298,2.55764 -6.085408,6.17361 -0.0882,-2.82222 -0.35278,-3.96875 -1.32292,-5.90903 -0.0882,-0.17639 -0.0882,-0.17639 -0.0882,-0.17639 -3.61597,1.6757 -3.61597,1.6757 -3.61597,1.6757 0,0.70555 0,0.70555 0,0.70555 0.44097,-0.0882 0.44097,-0.0882 0.44097,-0.0882 0.17639,0 0.17639,0 0.17639,0 1.05833,0 1.5875,1.32292 1.5875,4.40972 0,0 0,10.40695 0,10.67153 -0.26459,0.0882 -1.94028,0.35278 -1.94028,0.35278 0,0.88194 0,0.88194 0,0.88194 7.14375,0 7.14375,0 7.14375,0 0,-0.88194 0,-0.88194 0,-0.88194 0,0 -1.67569,-0.26458 -1.94028,-0.35278 0,-0.26458 0,-4.14514 0,-4.14514 0.44097,-8.64305 2.38125,-9.525 3.2632,-10.05416 0.70555,-0.44098 1.675688,-0.52917 1.763888,-0.44098 0.44097,0.61737 1.32291,0.52917 1.32291,0.52917 0.26459,0 1.41111,0.17639 2.29306,-1.41111 0.0882,0 0.0882,-0.26458 0.70555,-0.26458 2.46944,0 3.43958,2.91041 3.52777,4.85069 0,0 0,0 0,0 0,0 0,0 0,0 -3.61596,1.14653 -9.524988,3.08681 -9.524988,7.9375 0,2.91042 2.028468,4.8507 4.938888,4.8507 2.02847,0 3.88055,-1.14653 4.93888,-2.99862 0.17639,1.94028 1.05833,2.99862 2.55764,2.99862 0.79375,0 1.67569,-0.61737 2.64583,-1.76389 0.97014,1.14652 2.82222,1.76389 5.11528,1.76389 3.61597,0 6.43819,-2.46945 6.43819,-5.55625 0,-2.46945 -1.67569,-4.67431 -4.40972,-5.82084 z m -12.7,6.70277 c -1.05834,1.23473 -2.29305,2.02848 -3.26319,2.02848 -1.5875,0 -2.82222,-1.32292 -2.82222,-3.175 0,-3.2632 3.35139,-4.40973 5.99721,-5.29167 0,0 0.0882,-0.0882 0.0882,-0.0882 0,0.52917 0,6.4382 0,6.52639 z"
       id="path24" />
  </g>
</svg>
